<?xml version="1.0" encoding="UTF-8" standalone="no"?>
<svg
   xmlns:dc="http://purl.org/dc/elements/1.1/"
   xmlns:cc="http://creativecommons.org/ns#"
   xmlns:rdf="http://www.w3.org/1999/02/22-rdf-syntax-ns#"
   xmlns:svg="http://www.w3.org/2000/svg"
   xmlns="http://www.w3.org/2000/svg"
   viewBox="0 0 1122.52 793.70667"
   height="793.70667"
   width="1122.52"
   xml:space="preserve"
   id="svg2"
   version="1.1"><metadata
     id="metadata8"><rdf:RDF><cc:Work
         rdf:about=""><dc:format>image/svg+xml</dc:format><dc:type
           rdf:resource="http://purl.org/dc/dcmitype/StillImage" /></cc:Work></rdf:RDF></metadata><defs
     id="defs6"><clipPath
       id="clipPath18"
       clipPathUnits="userSpaceOnUse"><path
         id="path16"
         d="M 0,595.28 H 841.89 V 0 H 0 Z" /></clipPath></defs><g
     transform="matrix(1.3333333,0,0,-1.3333333,0,793.70667)"
     id="g10"><g
       id="g12"><g
         clip-path="url(#clipPath18)"
         id="g14"><g
           transform="translate(336.7515,304.2334)"
           id="g20"><path
             id="path22"
             style="fill:#087cb5;fill-opacity:1;fill-rule:nonzero;stroke:none"
             d="M 0,0 H -2.903 C -4.844,0 -5.65,1.243 -5.65,3.031 V 15.848 H 0 v 3.616 h -5.65 v 6.815 H -9.722 V 3.088 c 0,-4.889 2.454,-6.975 6.811,-6.975 l 2.911,0 z" /></g><g
           transform="translate(297.5791,311.3828)"
           id="g24"><path
             id="path26"
             style="fill:#087cb5;fill-opacity:1;fill-rule:nonzero;stroke:none"
             d="m 0,0 v -0.168 c 0,-8.302 6.784,-11.278 13.135,-11.278 6.205,0 12.447,2.968 12.447,9.54 0,6.381 -5.243,8.109 -10.16,9.229 L 13.707,7.696 C 9.299,8.656 5.48,9.47 5.48,12.751 c 0,4.671 4.808,5.207 6.869,5.207 4.537,0 7.176,-2.188 7.617,-6.281 l 0.018,-0.149 h 4.29 l -0.005,0.176 c -0.247,6.43 -4.526,10.104 -11.746,10.104 -5.752,0 -11.562,-2.889 -11.562,-9.366 0,-5.773 4.83,-7.301 10.206,-8.479 L 12.231,3.73 c 4.541,-0.967 8.833,-1.882 8.833,-5.77 0,-4.816 -4.882,-5.529 -7.798,-5.529 -2.458,0 -4.678,0.627 -6.252,1.763 -1.776,1.289 -2.716,3.235 -2.716,5.638 V 0 Z" /></g><g
           transform="translate(348.0557,303.814)"
           id="g28"><path
             id="path30"
             style="fill:#087cb5;fill-opacity:1;fill-rule:nonzero;stroke:none"
             d="m 0,0 c -1.265,0 -4.228,0.303 -4.228,3.16 0,2.755 2.249,3.553 4.435,3.942 0.667,0.113 1.381,0.206 2.056,0.29 1.752,0.231 3.408,0.446 4.526,1.109 0,0 0.091,0.052 0,0 V 4.958 C 6.789,3.042 4.945,0 0,0 M 13.189,0.29 12.965,0.207 C 12.459,0.019 12.122,0 11.879,0 10.903,0 10.854,0.529 10.854,2.37 v 11.694 c 0,4.327 -2.838,6.424 -8.692,6.424 -3.549,0 -9.536,-1.002 -9.802,-7.774 l -0.002,-0.18 h 4.061 l 0.007,0.159 c 0.15,2.828 1.912,4.169 5.516,4.169 3.328,0 4.891,-1.148 4.891,-3.63 0,-2.063 -2.093,-2.359 -4.976,-2.766 -0.824,-0.115 -1.659,-0.235 -2.55,-0.406 -3.96,-0.761 -7.833,-1.937 -7.833,-7.164 0,-4.088 2.878,-6.554 7.694,-6.554 3.236,0 5.863,1.145 7.872,3.319 0.158,-2.686 1.851,-3.319 3.294,-3.319 1.174,0 2.054,0.229 2.776,0.662 l 0.079,0.051 z" /></g><g
           transform="translate(364.8452,323.6973)"
           id="g32"><path
             id="path34"
             style="fill:#087cb5;fill-opacity:1;fill-rule:nonzero;stroke:none"
             d="m 0,0 v -23.065 h 4.082 v 13.002 c 0,4.345 2.445,6.962 6.554,6.962 2.738,0 4.446,-1.712 4.446,-4.417 v -15.547 h 4.082 v 15.106 c 0,5.717 -2.624,8.487 -8.005,8.487 -3.274,0 -5.716,-1.281 -7.312,-3.831 l 0,3.303 z" /></g><g
           transform="translate(399.0054,303.7354)"
           id="g36"><path
             id="path38"
             style="fill:#087cb5;fill-opacity:1;fill-rule:nonzero;stroke:none"
             d="m 0,0 c -4.741,0 -6.875,4.121 -6.875,8.235 0,2.588 0.648,8.626 6.66,8.626 6.479,0 6.988,-6.478 6.988,-8.453 C 6.773,4.329 4.996,0 0,0 m 6.642,28.634 v -11.48 c -1.726,2.439 -4.843,3.336 -7.254,3.336 -6.422,0 -10.563,-4.697 -10.563,-11.991 0,-3.352 0.954,-6.364 2.657,-8.499 1.886,-2.375 4.657,-3.656 7.99,-3.656 3.338,0 5.914,1.23 7.17,3.327 v -2.774 h 4.081 v 31.737 z" /></g><g
           transform="translate(422.3564,303.7354)"
           id="g40"><path
             id="path42"
             style="fill:#087cb5;fill-opacity:1;fill-rule:nonzero;stroke:none"
             d="m 0,0 c -1.27,0 -4.217,0.308 -4.217,3.165 0,2.752 2.232,3.547 4.417,3.939 0.666,0.11 1.366,0.209 2.066,0.29 1.754,0.231 3.403,0.446 4.512,1.105 0,0 0.094,0.057 0,0 V 4.961 C 6.778,3.041 4.945,0 0,0 M 13.192,0.291 12.971,0.208 C 12.461,0.021 12.121,0 11.889,0 c -1,0 -1.045,0.531 -1.045,2.372 v 11.695 c 0,4.329 -2.837,6.423 -8.671,6.423 -3.564,0 -9.549,-1.002 -9.815,-7.775 l -0.007,-0.178 h 4.076 l 0.01,0.158 c 0.147,2.826 1.894,4.166 5.511,4.166 3.329,0 4.874,-1.173 4.874,-3.627 0,-2.065 -2.08,-2.359 -4.962,-2.765 C 1.031,10.351 0.191,10.233 -0.694,10.065 -4.646,9.297 -8.516,8.122 -8.516,2.897 c 0,-4.087 2.862,-6.553 7.685,-6.553 3.233,0 5.864,1.145 7.861,3.315 0.159,-2.683 1.852,-3.315 3.298,-3.315 1.185,0 2.067,0.229 2.782,0.664 l 0.082,0.048 z" /></g><g
           transform="translate(451.3955,324.2188)"
           id="g44"><path
             id="path46"
             style="fill:#087cb5;fill-opacity:1;fill-rule:nonzero;stroke:none"
             d="m 0,0 -0.16,0.007 c -3.807,0.121 -6.369,-1.405 -8.287,-4.979 v 4.451 h -3.842 v -23.065 h 4.062 v 10.283 c 0,6.138 2.581,9.022 8.057,9.022 l 0.17,0 z" /></g><g
           transform="translate(463.1377,303.7354)"
           id="g48"><path
             id="path50"
             style="fill:#087cb5;fill-opacity:1;fill-rule:nonzero;stroke:none"
             d="m 0,0 c -4.757,0 -6.876,4.121 -6.876,8.235 0,2.588 0.647,8.626 6.661,8.626 6.473,0 6.976,-6.478 6.976,-8.453 C 6.761,4.329 4.985,0 0,0 m 6.63,28.634 v -11.48 c -1.724,2.439 -4.83,3.336 -7.274,3.336 -6.391,0 -10.544,-4.697 -10.544,-11.991 0,-3.352 0.94,-6.364 2.677,-8.499 1.883,-2.375 4.635,-3.656 7.977,-3.656 3.34,0 5.916,1.232 7.164,3.327 v -2.774 h 4.094 v 31.737 z" /></g><g
           transform="translate(305.9951,268.5713)"
           id="g52"><path
             id="path54"
             style="fill:#087cb5;fill-opacity:1;fill-rule:nonzero;stroke:none"
             d="m 0,0 -0.014,-0.152 c -0.418,-5.479 -3.817,-8.905 -8.878,-8.905 -3.496,0 -6.206,1.27 -8.03,3.83 -1.633,2.239 -2.501,5.4 -2.501,9.158 0,3.426 0.895,6.507 2.492,8.716 1.83,2.503 4.601,3.818 7.993,3.818 4.594,0 7.809,-2.443 8.624,-6.553 l 0.02,-0.138 H 4.228 L 4.193,9.965 c -0.462,3.247 -1.996,5.91 -4.43,7.73 -2.298,1.715 -5.296,2.619 -8.655,2.619 -4.635,0 -8.504,-1.692 -11.201,-4.902 -2.47,-2.947 -3.841,-7.154 -3.841,-11.785 0,-10.197 5.632,-16.541 14.691,-16.541 3.891,0 7.209,1.174 9.579,3.393 2.332,2.187 3.773,5.433 4.165,9.335 L 4.521,0 Z" /></g><g
           transform="translate(314.4248,288.1699)"
           id="g56"><path
             id="path58"
             style="fill:#087cb5;fill-opacity:1;fill-rule:nonzero;stroke:none"
             d="m 0,0 v -31.79 h 4.079 v 13.03 c 0,4.367 2.459,6.963 6.554,6.963 2.753,0 4.453,-1.683 4.453,-4.394 V -31.79 h 4.076 v 15.162 c 0,5.692 -2.61,8.457 -7.989,8.457 -2.423,0 -5.639,-0.916 -7.094,-3.493 L 4.079,0 Z" /></g><g
           transform="translate(345.6982,259.5146)"
           id="g60"><path
             id="path62"
             style="fill:#087cb5;fill-opacity:1;fill-rule:nonzero;stroke:none"
             d="m 0,0 c -1.279,0 -4.229,0.304 -4.229,3.188 0,2.75 2.231,3.519 4.435,3.908 0.664,0.116 1.362,0.208 2.035,0.293 1.773,0.226 3.429,0.447 4.533,1.11 0,0 0.089,0.051 0,0 V 4.983 C 6.774,3.063 4.941,0 0,0 m -3.577,12.559 0.003,0.164 c 0.149,2.817 1.896,4.135 5.505,4.135 3.34,0 4.885,-1.149 4.885,-3.607 0,-2.086 -2.081,-2.381 -4.97,-2.786 -0.813,-0.114 -1.65,-0.237 -2.534,-0.405 -3.968,-0.764 -7.84,-1.942 -7.84,-7.144 0,-4.105 2.877,-6.55 7.695,-6.55 3.218,0 5.865,1.119 7.86,3.286 0.156,-2.678 1.861,-3.286 3.31,-3.286 1.163,0 2.037,0.205 2.762,0.635 l 0.078,0.05 V 0.287 L 12.952,0.205 C 12.442,0.015 12.106,0 11.87,0 10.897,0 10.854,0.52 10.854,2.395 v 11.693 c 0,4.309 -2.853,6.396 -8.705,6.396 -3.548,0 -9.536,-1.004 -9.801,-7.751 l -10e-4,-0.174 z" /></g><g
           transform="translate(463.1377,259.5146)"
           id="g64"><path
             id="path66"
             style="fill:#087cb5;fill-opacity:1;fill-rule:nonzero;stroke:none"
             d="m 0,0 c -4.757,0 -6.876,4.143 -6.876,8.226 0,2.59 0.647,8.632 6.661,8.632 6.473,0 6.976,-6.479 6.976,-8.456 C 6.761,4.352 4.985,0 0,0 M 10.724,-3.111 V 28.624 H 6.63 V 17.148 c -1.724,2.445 -4.83,3.336 -7.274,3.336 -6.391,0 -10.544,-4.695 -10.544,-11.994 0,-3.323 0.94,-6.356 2.677,-8.499 1.883,-2.367 4.635,-3.625 7.977,-3.625 3.34,0 5.916,1.206 7.164,3.306 v -2.783 z" /></g><g
           transform="translate(400.563,276.373)"
           id="g68"><path
             id="path70"
             style="fill:#087cb5;fill-opacity:1;fill-rule:nonzero;stroke:none"
             d="M 0,0 C 3.409,0 6.101,-2.601 6.358,-6.091 H -6.312 C -6.013,-3.02 -3.971,0 0,0 m 6.213,-12.81 c -0.693,-2.619 -2.67,-4.048 -5.638,-4.048 -2.104,0 -3.864,0.65 -5.071,1.898 -1.22,1.299 -1.871,3.14 -1.835,5.238 h 16.842 0.159 l 0.012,0.167 C 10.847,-5.456 9.585,-1.562 7.314,0.799 5.5,2.676 3.124,3.626 0.226,3.626 c -6.293,0 -10.859,-5.032 -10.859,-11.994 0.247,-7.718 4.287,-12.124 11.074,-12.124 5.2,0 8.772,2.793 9.839,7.682 z" /></g><g
           transform="translate(438.6084,276.373)"
           id="g72"><path
             id="path74"
             style="fill:#087cb5;fill-opacity:1;fill-rule:nonzero;stroke:none"
             d="M 0,0 C 3.393,0 6.11,-2.601 6.369,-6.091 H -6.33 C -6.026,-3.02 -3.955,0 0,0 m 6.214,-12.862 c -0.711,-2.586 -2.71,-3.996 -5.643,-3.996 -2.1,0 -3.848,0.65 -5.05,1.898 -1.254,1.299 -1.898,3.14 -1.866,5.238 h 16.855 0.163 l 0.008,0.167 C 10.844,-5.456 9.587,-1.562 7.309,0.799 5.506,2.676 3.107,3.626 0.223,3.626 c -6.305,0 -10.851,-5.032 -10.851,-11.994 0.236,-7.718 4.27,-12.124 11.07,-12.124 5.195,0 8.746,2.766 9.826,7.63 z" /></g><g
           transform="translate(366.5405,256.3838)"
           id="g76"><path
             id="path78"
             style="fill:#087cb5;fill-opacity:1;fill-rule:nonzero;stroke:none"
             d="m 0,0 v 10.307 c 0,6.164 2.565,9.024 8.062,9.024 H 8.23 v 4.281 L 8.065,23.615 C 4.244,23.739 1.671,22.216 -0.219,18.664 v 4.455 H -4.074 V 0 Z" /></g><g
           transform="translate(419.3389,256.4033)"
           id="g80"><path
             id="path82"
             style="fill:#087cb5;fill-opacity:1;fill-rule:nonzero;stroke:none"
             d="m 0,0 v 10.287 c 0,6.164 2.551,9.025 8.057,9.025 h 0.165 v 4.281 l -0.16,0.003 C 4.223,23.72 1.665,22.196 -0.22,18.645 v 4.446 H -4.078 V 0 Z" /></g><g
           transform="translate(387.875,260.0088)"
           id="g84"><path
             id="path86"
             style="fill:#087cb5;fill-opacity:1;fill-rule:nonzero;stroke:none"
             d="M 0,0 H -2.894 C -4.847,0 -5.65,1.238 -5.65,3.057 V 15.848 H 0 v 3.617 h -5.65 v 6.813 H -9.724 V 3.113 c 0,-4.915 2.464,-7.007 6.825,-7.007 H 0 Z" /></g><g
           transform="translate(512.8838,247.7383)"
           id="g88"><path
             id="path90"
             style="fill:#83bada;fill-opacity:1;fill-rule:nonzero;stroke:none"
             d="m 0,0 c -2.786,-1.656 -5.312,-2.644 -7.964,-2.644 -6.865,0 -12.602,5.619 -12.932,12.379 l 13.377,7.967 20.787,-9.295 z" /></g><g
           transform="translate(520.834,281.9707)"
           id="g92"><path
             id="path94"
             style="fill:#a2d993;fill-opacity:1;fill-rule:nonzero;stroke:none"
             d="m 0,0 -9.933,4.374 c -4.441,1.983 -8.628,3.633 -8.628,8.522 0,2.531 0.769,3.855 1.982,5.177 L 4.431,8.81 -0.781,5.806 C -2.217,4.921 -3.207,4.151 -3.207,3.043 -3.207,1.851 -1.842,0.834 0,0" /></g><g
           transform="translate(530.5918,327.8086)"
           id="g96"><path
             id="path98"
             style="fill:#83bada;fill-opacity:1;fill-rule:nonzero;stroke:none"
             d="m 0,0 -10.188,-6.182 c -0.9,-0.547 -2.109,-1.425 -2.109,-2.781 0,-1.543 2.35,-2.725 4.437,-3.721 l -12.739,5.62 c -3.754,1.657 -7.501,3.534 -7.501,8.057 0,1.902 0.55,3.442 1.433,4.765 L 0.877,22.591 C 4.18,20.719 7.383,16.932 7.383,11.856 7.383,6.421 4.63,2.783 0,0" /></g><g
           transform="translate(552.2539,307.9033)"
           id="g100"><path
             id="path102"
             style="fill:#a2d993;fill-opacity:1;fill-rule:nonzero;stroke:none"
             d="M 0,0 -2.53,-1.432 -23.573,7.856 0.884,22.577 C 4.188,20.675 7.422,16.929 7.422,11.853 7.422,6.42 4.744,2.673 0,0" /></g><g
           transform="translate(534.4902,290.042)"
           id="g104"><path
             id="path106"
             style="fill:#83bada;fill-opacity:1;fill-rule:nonzero;stroke:none"
             d="m 0,0 12.449,-5.469 c 4.66,-2.09 6.094,-4.542 6.094,-7.641 0,-1.758 -0.993,-3.527 -2.425,-4.737 l -20.928,9.291 3.543,1.987 c 2.992,1.653 3.986,2.649 3.986,3.75 C 2.719,-1.675 2.021,-0.92 0,0" /></g><g
           transform="translate(556.6729,244.1006)"
           id="g108"><path
             id="path110"
             style="fill:#36af3b;fill-opacity:1;fill-rule:nonzero;stroke:none"
             d="m 0,0 c -5.297,4.079 -10.944,6.837 -17.812,9.951 l -31.734,14.042 c -7.974,3.55 -13.265,8.287 -13.265,16.263 0,7.751 3.752,11.497 8.63,14.581 l 1.763,1.106 c -1.213,-1.322 -1.981,-2.646 -1.981,-5.177 0,-4.889 4.186,-6.538 8.628,-8.522 L -8.849,25.976 C -2.428,23.213 3.45,18.473 3.45,10.396 3.45,5.956 1.761,1.981 0,0" /></g><g
           transform="translate(552.9238,273.6289)"
           id="g112"><path
             id="path114"
             style="fill:#087cb5;fill-opacity:1;fill-rule:nonzero;stroke:none"
             d="m 0,0 -2.315,-1.434 c 1.431,1.21 2.424,2.979 2.424,4.743 0,3.093 -1.437,5.545 -6.093,7.635 l -39.484,17.375 c -7.97,3.529 -12.93,8.077 -12.93,16.011 0,7.313 3.636,12.085 9.399,15.608 -0.883,-1.324 -1.433,-2.863 -1.433,-4.765 0,-4.524 3.747,-6.4 7.501,-8.058 L -4.557,30.188 C 2.418,27.104 8.069,22.444 8.069,13.924 8.069,7.28 4.963,3.092 0,0" /></g></g></g></g></svg>